<?xml version="1.0" standalone="no"?>
<!DOCTYPE svg PUBLIC "-//W3C//DTD SVG 20010904//EN"
 "http://www.w3.org/TR/2001/REC-SVG-20010904/DTD/svg10.dtd">
<svg version="1.0" xmlns="http://www.w3.org/2000/svg"
 width="871.000000pt" height="522.000000pt" viewBox="0 0 871.000000 522.000000"
 preserveAspectRatio="xMidYMid meet">
<metadata>
Created by potrace 1.16, written by Peter Selinger 2001-2019
</metadata>
<g transform="translate(0.000000,522.000000) scale(0.100000,-0.100000)"
fill="#000000" stroke="none">
<path d="M0 2610 l0 -2610 4355 0 4355 0 0 2610 0 2610 -4355 0 -4355 0 0
-2610z m2375 1574 c61 -8 124 -19 141 -24 46 -16 99 -77 138 -160 74 -162 241
-701 345 -1116 60 -240 97 -417 196 -934 114 -591 121 -617 195 -668 48 -33
134 -31 845 18 83 6 215 15 295 20 80 6 197 15 260 20 63 5 185 14 270 20 85
6 313 22 505 35 193 14 406 26 474 28 107 2 125 0 134 -15 9 -13 8 -26 -1 -50
-6 -17 -10 -34 -7 -36 2 -3 34 -8 71 -11 48 -5 70 -13 80 -26 26 -36 15 -66
-38 -98 -31 -19 -36 -48 -14 -67 25 -20 57 -135 58 -205 0 -89 -40 -173 -120
-246 -177 -162 -431 -156 -587 13 -94 102 -116 206 -73 359 11 44 19 81 17 83
-10 9 -1313 -79 -1330 -90 -4 -2 9 -41 29 -86 31 -71 36 -94 35 -158 -1 -164
-110 -312 -261 -356 -80 -24 -260 -16 -325 13 -105 48 -186 147 -214 261 -15
65 -10 122 19 199 10 29 17 57 14 61 -3 5 -43 12 -88 15 -107 7 -118 11 -118
51 0 35 23 62 74 89 l30 15 -65 31 c-107 54 -150 110 -184 242 -9 35 -21 81
-26 102 l-10 37 -67 0 c-37 0 -196 -9 -352 -20 -157 -11 -384 -26 -505 -35
-983 -68 -1731 -95 -1751 -63 -22 36 73 49 766 103 107 8 254 20 325 25 190
15 851 58 1223 79 178 10 325 20 326 22 7 9 -15 163 -25 176 -14 16 -98 17
-289 3 -888 -63 -1409 -91 -1835 -96 -409 -5 -431 6 -70 36 127 11 325 28 440
39 116 11 383 34 595 51 212 16 435 34 495 40 61 5 228 17 373 27 l264 17 -7
59 c-4 32 -10 71 -14 85 l-8 27 -99 -2 c-54 -2 -238 -12 -409 -23 -1055 -68
-1833 -98 -1849 -71 -8 13 376 54 744 81 80 5 201 14 270 20 347 26 1259 90
1289 90 24 0 24 0 17 83 -4 49 -12 88 -21 96 -15 15 -138 11 -640 -24 -224
-15 -660 -39 -1021 -55 -291 -13 -771 -13 -758 0 18 18 252 39 1139 105 187
13 446 32 575 40 289 19 592 43 643 51 31 5 37 10 37 30 0 51 -32 165 -48 171
-15 6 -327 -9 -557 -28 -172 -13 -1185 -66 -1550 -80 -295 -12 -365 -10 -365
10 0 18 66 30 215 40 604 42 736 51 785 56 30 3 150 12 265 20 545 39 657 47
888 65 311 25 299 22 291 69 -32 177 -255 886 -343 1091 l-36 85 -84 0 -83 0
-30 -38 c-46 -57 -145 -78 -444 -93 -155 -8 -218 3 -259 46 -38 39 -45 111
-16 157 32 50 67 62 213 73 73 6 156 12 183 14 80 6 291 -4 410 -20z m4655
-567 c48 -24 90 -88 90 -137 0 -14 -25 -86 -56 -160 -109 -265 -300 -773 -399
-1060 -102 -298 -166 -458 -200 -497 -56 -66 -121 -94 -238 -103 -119 -10
-802 -26 -1700 -40 l-638 -11 -51 28 c-121 65 -145 117 -128 276 11 102 83
654 140 1072 38 284 49 318 109 363 57 42 91 49 376 76 88 9 205 20 260 26 92
9 260 23 965 80 312 26 812 69 1160 101 69 6 127 13 130 16 12 12 139 -9 180
-30z"/>
<path d="M5325 3113 c-64 -8 -189 -45 -236 -68 -27 -14 -80 -55 -118 -91 -86
-81 -139 -182 -177 -340 -22 -91 -25 -126 -22 -219 3 -96 7 -117 31 -167 34
-69 91 -120 166 -149 48 -19 83 -23 241 -27 l185 -5 40 -53 c22 -29 46 -56 54
-59 26 -10 171 93 171 123 0 8 -9 30 -21 48 -24 40 -19 53 53 134 115 128 184
340 176 542 -4 94 -8 114 -34 165 -38 76 -121 134 -223 157 -64 15 -209 19
-286 9z m172 -218 c50 -21 72 -42 94 -90 23 -50 25 -151 4 -243 -19 -82 -74
-196 -97 -200 -11 -2 -34 18 -64 57 -26 34 -53 61 -60 61 -16 0 -133 -89 -148
-112 -8 -13 -6 -29 6 -63 15 -39 15 -47 3 -51 -25 -10 -120 24 -147 53 -46 50
-53 72 -52 173 2 197 75 338 209 402 50 23 73 28 138 28 47 0 92 -6 114 -15z"/>
</g>
</svg>
